<svg xmlns="http://www.w3.org/2000/svg" xmlns:xlink="http://www.w3.org/1999/xlink" width="89.846" height="114.845" viewBox="0 0 89.846 114.845">
  <defs>
    <linearGradient id="linear-gradient" x1="0.5" x2="0.5" y2="1" gradientUnits="objectBoundingBox">
      <stop offset="0" stop-color="#333592"/>
      <stop offset="1" stop-color="#ef409b"/>
    </linearGradient>
  </defs>
  <g id="Group_58" data-name="Group 58" transform="translate(744.05 -2709.685)">
    <g id="Group_59" data-name="Group 59" transform="translate(-350 1082)">
      <path id="Path_47" data-name="Path 47" d="M-308.831,1634.347c-.468.175-.781.285-1.089.407a19.263,19.263,0,0,1-8.826,1.376,41.738,41.738,0,0,0-8.329-.153,18.886,18.886,0,0,0-10.4,4.488,28.372,28.372,0,0,0-2.04,2.149c-.116-.621-.213-1.292-.371-1.949a17.134,17.134,0,0,0-3.388-6.533,5.751,5.751,0,0,1-1.295-4.824,14.277,14.277,0,0,1,.533-1.616.88.88,0,0,0-.227,0c-.762.219-1.54.4-2.279.676a23.207,23.207,0,0,0-9.562,6.587,15.058,15.058,0,0,0-2.939,4.805c-.326.931-.578,1.888-.869,2.849-.053-.072-.122-.158-.182-.248a15.277,15.277,0,0,0-6.307-5.288,23.013,23.013,0,0,0-9.867-1.969,41.351,41.351,0,0,1-9.518-.919c-.682-.165-1.376-.284-2.129-.437a31.834,31.834,0,0,0,2.274,6.815,18.838,18.838,0,0,0,5.7,7.008,1.19,1.19,0,0,0,.659.244,11.647,11.647,0,0,1,8.881,3.838c.24.252.465.519.592.661.535-.47.991-.869,1.445-1.27,3.127-2.762,6.691-3.921,10.8-2.819a12.73,12.73,0,0,1,8.181,7.06c.071.141.152.276.253.46,1.986-4.042,4.872-6.926,9.377-7.729,4.565-.814,8.176,1.019,11.162,4.387.131-.137.237-.241.336-.353a11.4,11.4,0,0,1,7.308-4.071,5.723,5.723,0,0,0,3.324-1.436c.338-.3.7-.576,1.04-.878a28.015,28.015,0,0,0,6.192-7.97C-309.834,1636.653-309.386,1635.557-308.831,1634.347Zm-38.97,28.223c.059.492.106,1.384.278,2.252a11.332,11.332,0,0,0,5.093,7.783,8.627,8.627,0,0,0,10.283-.751,11.051,11.051,0,0,0,3.739-5.942c1.307-5.105.292-9.6-3.666-13.234a8.213,8.213,0,0,0-5.019-2.151,8.919,8.919,0,0,0-7.671,3.3A12.911,12.911,0,0,0-347.8,1662.57Zm-22.616-.454c.044.637.051,1.074.107,1.5.518,3.928,2.135,7.186,5.7,9.228a8.127,8.127,0,0,0,5.5.994,9.565,9.565,0,0,0,6.733-4.741,12.687,12.687,0,0,0,1.752-8.821,11.321,11.321,0,0,0-5.76-8.748,8.512,8.512,0,0,0-9.562.947A12.314,12.314,0,0,0-370.417,1662.115Zm61.059.368a13.09,13.09,0,0,0-2.681-8.232,9.1,9.1,0,0,0-6.562-3.716,8.993,8.993,0,0,0-8.188,3.955.9.9,0,0,0-.023.692,36.233,36.233,0,0,1,1.4,4.409,15.517,15.517,0,0,1-1.415,9.711.617.617,0,0,0,.085.758,9.978,9.978,0,0,0,2.984,2.655,8.318,8.318,0,0,0,9.452-.406C-310.835,1669.887-309.51,1666.32-309.358,1662.484Zm-70.4,11.456a9.753,9.753,0,0,0,8.35-4.039.658.658,0,0,0,.014-.546,16.014,16.014,0,0,1-.02-14.234.765.765,0,0,0-.086-.678,18.066,18.066,0,0,0-1.931-1.983,8.182,8.182,0,0,0-4.754-1.931,8.975,8.975,0,0,0-8.541,4.476,12.775,12.775,0,0,0-.54,13.525C-385.525,1671.859-382.75,1673.782-379.761,1673.94Zm30.615-5.068c-.529.844-1.037,1.775-1.66,2.622a12.054,12.054,0,0,1-7.652,4.959.7.7,0,0,0-.416.481,12.808,12.808,0,0,0,2.795,10.6,8.827,8.827,0,0,0,12.987.948c3.378-3.15,4.381-7.156,3.7-11.641a.644.644,0,0,0-.43-.4,11.8,11.8,0,0,1-7.116-4.3C-347.781,1671.117-348.434,1669.94-349.145,1668.872Zm9.257,20.1c-.128.145-.248.285-.372.422a11.736,11.736,0,0,1-6.714,3.925.665.665,0,0,0-.65.672c-.522,4.266.412,8.049,3.518,11.2a8.762,8.762,0,0,0,11.355,1.027,11.563,11.563,0,0,0,4.519-6.92,13.232,13.232,0,0,0,.079-5.986C-332.934,1694.2-336.759,1692.574-339.889,1688.976Zm-30.195,4.341c-.055.237-.1.4-.129.566-.022.111-.032.225-.046.337a12.917,12.917,0,0,0,2.6,9.922,9.071,9.071,0,0,0,6.354,3.655,8.707,8.707,0,0,0,7.72-3.169,12.714,12.714,0,0,0,2.943-10.738c-.05-.352-.206-.493-.571-.551a10.279,10.279,0,0,1-4.759-2.116c-.859-.671-1.637-1.447-2.449-2.174A11.768,11.768,0,0,1-370.083,1693.317Zm-19.347-1.122c-.152,1.074-.355,2.036-.413,3.007a12.11,12.11,0,0,0,4.09,10.412,8.416,8.416,0,0,0,7.586,2.054,9.9,9.9,0,0,0,6.09-4.308,1.278,1.278,0,0,0,.153-1.307,16.063,16.063,0,0,1-.759-9.354.609.609,0,0,0-.247-.466c-.8-.594-1.649-1.128-2.427-1.75-.391-.312-.609-.316-.977.026a11.12,11.12,0,0,1-6.805,3.015A11.346,11.346,0,0,1-389.431,1692.2Zm80.609-.017a10.764,10.764,0,0,1-5.145,1.383,11.158,11.158,0,0,1-7.984-3.075c-.352-.324-.559-.314-.934-.012-.776.625-1.625,1.158-2.424,1.756a.681.681,0,0,0-.241.515c.067.675.22,1.342.287,2.017a16.373,16.373,0,0,1-1.127,7.5.948.948,0,0,0,.059.726,9.922,9.922,0,0,0,4.845,4.259,8.77,8.77,0,0,0,9.866-2.44,12.29,12.29,0,0,0,3.236-9.381C-308.442,1694.361-308.664,1693.31-308.822,1692.178Zm-60.808-20.113c-.264.252-.495.447-.7.669a11.847,11.847,0,0,1-6.49,3.676.63.63,0,0,0-.6.6,13.014,13.014,0,0,0,.248,5.457c.979,3.64,2.949,6.52,6.6,7.879,4.022,1.5,7.879-.134,10.359-3.318a.713.713,0,0,0,.062-.862,15.889,15.889,0,0,1-1.5-8.986,5.621,5.621,0,0,0,0-.608A12.334,12.334,0,0,1-369.63,1672.065Zm32.978,4.552c.024.306.044.622.073.936a14.664,14.664,0,0,1-1.241,7.91,1.772,1.772,0,0,0,.412,2.337,8.857,8.857,0,0,0,12.9.579c3.289-3.152,4.268-7.094,3.626-11.509a.7.7,0,0,0-.467-.422,11.541,11.541,0,0,1-4.993-2.3c-.778-.65-1.513-1.349-2.27-2.028C-332.6,1675.648-332.742,1675.729-336.652,1676.618Zm-12.522,26.068c-.213.4-.421.8-.643,1.194a12.682,12.682,0,0,1-7.82,6.288c-.459.13-1.149.131-1.318.428-.209.368-.022.987.054,1.489a11.529,11.529,0,0,0,4.459,7.81,8.691,8.691,0,0,0,11.205-.436,12.058,12.058,0,0,0,4.02-8.537c.023-.34-.045-.482-.427-.554a11.958,11.958,0,0,1-7.644-4.776C-347.966,1704.674-348.536,1703.676-349.175,1702.686Zm-40.57-33.057a.737.737,0,0,0-.134.056c-.076.056-.149.116-.219.179a11.274,11.274,0,0,0-3.209,5,12.764,12.764,0,0,0,1.989,12.279,8.779,8.779,0,0,0,8.874,3.589,8.7,8.7,0,0,0,4.874-2.687,16.107,16.107,0,0,1-2.485-11.44A12.893,12.893,0,0,1-389.744,1669.629Zm69.036,18.464c.469.385.878.748,1.315,1.073a8.648,8.648,0,0,0,9.734.425,11.26,11.26,0,0,0,5.05-7.241,13.043,13.043,0,0,0-1.1-9.309,10.493,10.493,0,0,0-2.766-3.446c-2.171,3.858-5.269,6.365-9.72,7A16.171,16.171,0,0,1-320.709,1688.093Zm-7.363,17.181a12.446,12.446,0,0,1-8.392,5.184,1,1,0,0,0-.039.212c.029.339.052.678.1,1.015a11.97,11.97,0,0,0,4.21,7.968,8.713,8.713,0,0,0,11.527-.182,11.6,11.6,0,0,0,3.8-6.79c.141-.733.2-1.481.3-2.294a11.067,11.067,0,0,1-6.512-.93A12.9,12.9,0,0,1-328.072,1705.274Zm-33.608,5.189a12.555,12.555,0,0,1-8.491-5.131c-2.963,3.7-6.635,5.649-11.407,5.1a1,1,0,0,0-.043.137.836.836,0,0,0-.009.17c.3,4.046,1.827,7.452,5.365,9.66a8.227,8.227,0,0,0,8.876.154,11.108,11.108,0,0,0,5.31-7.561C-361.884,1712.175-361.813,1711.329-361.68,1710.463Zm23.871,6.125c-.527.855-.992,1.7-1.54,2.482a12.413,12.413,0,0,1-6.726,4.923c-.4.12-.518.261-.424.664a13.3,13.3,0,0,0,2.5,5.337,8.942,8.942,0,0,0,11.235,2.628,11.329,11.329,0,0,0,5.7-8.209C-332.243,1723.946-335.592,1721.025-337.809,1716.588Zm-33.369,7.828a11.72,11.72,0,0,0,4.508,7.46,8.632,8.632,0,0,0,9.837.391,11.107,11.107,0,0,0,4.736-6.356c.18-.566.294-1.153.44-1.74a13.516,13.516,0,0,1-8.749-7.647C-362.652,1721.014-365.994,1723.934-371.178,1724.416Zm22.053.914c-1.258,5-4.063,8.641-8.953,10.49,1.407,3.935,5.412,6.833,9.084,6.707a9.981,9.981,0,0,0,8.794-6.717C-345.079,1733.953-347.863,1730.311-349.125,1725.33Z" fill="url(#linear-gradient)"/>
    </g>
  </g>
</svg>
