<?xml version="1.0" encoding="utf-8"?>
<!-- Generator: Adobe Illustrator 26.0.2, SVG Export Plug-In . SVG Version: 6.00 Build 0)  -->
<svg version="1.1" id="Capa_1" xmlns="http://www.w3.org/2000/svg" xmlns:xlink="http://www.w3.org/1999/xlink" x="0px" y="0px"
	 viewBox="0 0 348.3 348.3" style="enable-background:new 0 0 348.3 348.3;" xml:space="preserve">
<g>
	<path d="M336.4,70.3L230.8,175.9l105.5,105.5c15.7,15.7,15.7,41.1,0,56.9c-7.8,7.8-18.1,11.8-28.4,11.8s-20.6-3.9-28.4-11.8
		L174,232.8L68.4,338.4c-7.8,7.8-18.1,11.8-28.4,11.8s-20.6-3.9-28.4-11.8c-15.7-15.7-15.7-41.1,0-56.9L117.1,176L11.6,70.3
		c-15.7-15.7-15.7-41.1,0-56.8s41.1-15.7,56.8,0L174,119.1L279.5,13.6c15.7-15.7,41.1-15.7,56.8,0C352.1,29.3,352.1,54.7,336.4,70.3
		z"/>
</g>
</svg>
