<?xml version="1.0" encoding="utf-8"?>
<!-- Generator: Adobe Illustrator 26.0.2, SVG Export Plug-In . SVG Version: 6.00 Build 0)  -->
<svg version="1.1" id="Facebook_black" xmlns="http://www.w3.org/2000/svg" xmlns:xlink="http://www.w3.org/1999/xlink" x="0px"
	 y="0px" viewBox="0 0 48 48" style="enable-background:new 0 0 48 48;" xml:space="preserve">
<style type="text/css">
	.st0{fill:#FF6700;}
</style>
<g id="Facebook">
	<path id="Combined-Shape" class="st0" d="M24,48C10.7,48,0,37.2,0,24C0,14.3,5.8,5.6,14.7,1.9C26.9-3.3,41,2.4,46.1,14.7
		S45.6,41,33.3,46.1l0,0C30.4,47.4,27.2,48,24,48z M18.4,20.6v4.5h2.7v13.1h5.4V25.1h3.6l0.5-4.5h-4.1l0-2.3c0-1.2,0.1-1.8,1.8-1.8
		h2.3V12H27c-2.1,0-3.6,0.5-4.6,1.6c-1,1.2-1.4,2.8-1.3,4.3v2.7L18.4,20.6z"/>
</g>
</svg>
