<svg width="577" height="576" viewBox="0 0 577 576" fill="none" xmlns="http://www.w3.org/2000/svg">
<path d="M23.5409 396.359C23.5409 346.451 64.6583 291.702 141.383 291.702C178.583 291.702 210.91 308.519 240.275 330.59C264.29 298.422 288.272 262.91 312.732 229.309C268.685 208.193 237.345 171.217 237.345 141.437C237.345 122.71 253.493 109.747 260.34 109.747C266.232 109.747 268.175 120.799 272.602 129.43C287.285 158.732 312.732 179.37 341.619 192.333C384.711 140.004 430.797 100.639 484.941 100.639C493.579 100.512 502.181 101.77 510.42 104.365C466.296 51.0472 404.445 15.4051 336.19 3.96319C267.935 -7.47868 197.842 6.04521 138.742 42.0592C79.6434 78.0733 35.4924 134.168 14.3718 200.074C-6.74885 265.98 -3.42592 337.289 23.7322 400.945C23.6685 399.353 23.5409 397.76 23.5409 396.359Z" fill="#FF6700"/>
<path d="M396.082 206.665C403.058 207.627 410.092 208.116 417.134 208.13C478.349 208.13 508.701 174.975 508.701 150.514C508.701 135.609 498.891 124.111 482.266 124.111C453.856 124.175 426.434 158.891 396.082 206.665Z" fill="#FF6700"/>
<path d="M541.633 150.26C538.129 192.874 485.132 246.572 386.782 246.572C381.399 246.572 376.494 246.572 371.621 246.094C347.129 286.893 320.217 332.087 289.355 371.899C326.077 405.022 359.423 435.597 395.126 435.597C413.217 435.597 425.479 421.647 427.421 421.647C429.874 421.647 431.339 422.635 431.339 425.023C431.339 427.89 384.329 494.646 341.269 494.646C308.464 494.646 277.125 460.058 243.842 422.635C207.598 456.236 166.003 478.785 118.006 478.785C95.0744 478.785 76.602 473.625 62.0469 465.122C106.601 521.897 170.851 559.869 242.074 571.518C313.298 583.168 386.298 567.644 446.619 528.022C506.939 488.4 550.179 427.569 567.776 357.578C585.373 287.587 576.042 213.539 541.633 150.101V150.26Z" fill="#FF6700"/>
<path d="M54.3711 385.817C54.3711 412.22 73.4807 432.381 107.75 432.381C141.033 432.381 171.863 410.277 202.215 377.664C175.303 351.738 146.893 332.056 115.076 332.056C79.0222 332.056 54.3711 357.471 54.3711 385.817Z" fill="#FF6700"/>
</svg>
