<svg xmlns="http://www.w3.org/2000/svg" xmlns:xlink="http://www.w3.org/1999/xlink" width="113.777" height="114.318" viewBox="0 0 113.777 114.318">
  <defs>
    <linearGradient id="linear-gradient" x1="0.5" x2="0.5" y2="1" gradientUnits="objectBoundingBox">
      <stop offset="0" stop-color="#333592"/>
      <stop offset="1" stop-color="#eb3d98"/>
    </linearGradient>
  </defs>
  <g id="Group_57" data-name="Group 57" transform="translate(-903 -2712.531)">
    <g id="Group_56" data-name="Group 56" transform="translate(777.918 2493.17)">
      <path id="Path_39" data-name="Path 39" d="M171.947,247.156c-4.071,2.52-7.019,4.789-10.319,6.291-6.2,2.826-12.426,5.826-18.956,7.615-8.206,2.245-16.7-.661-17.5-11.117a19.534,19.534,0,0,1,1.428-9.738,10.769,10.769,0,0,1,8.811-6.481c6.872-1.015,13.374,1.055,19.549,4.12,2.4,1.19,4.973,2.04,7.313,3.331C165.283,242.834,168.137,244.779,171.947,247.156Z" transform="translate(0 29.034)" fill="url(#linear-gradient)"/>
      <path id="Path_40" data-name="Path 40" d="M147.145,247.2c6.634-3.4,12.365-6.331,18.09-9.273A35.9,35.9,0,0,1,183.46,233.5c4.065.177,9.747,4.441,9.872,8.787a72.15,72.15,0,0,1-.165,10.668c-.474,3.964-4.841,7.939-8.875,8.444-6.924.865-13.389-.93-19.531-3.945-4.976-2.444-9.854-5.1-14.744-7.719A22.711,22.711,0,0,1,147.145,247.2Z" transform="translate(45.413 29.039)" fill="url(#linear-gradient)"/>
      <path id="Path_41" data-name="Path 41" d="M166.971,260.344a53.858,53.858,0,0,1-20.262-5.49,93.411,93.411,0,0,1-9.7-4.8c-4.135-2.627-7.655-6.068-8.083-11.328-.45-5.477,3.233-8.875,6.866-12.181,3.67-3.337,8.08-4.3,12.4-2.223a21.8,21.8,0,0,1,7.6,6.475,53.4,53.4,0,0,1,9.958,24.075c.135.865.654,1.661.866,2.523A28,28,0,0,1,166.971,260.344Z" transform="translate(7.839 7.955)" fill="url(#linear-gradient)"/>
      <path id="Path_42" data-name="Path 42" d="M147.177,240.648c4.78,1.22,9.628,2.223,14.322,3.71,7.392,2.337,14.362,5.435,19.885,11.276,3.847,4.071,3.823,12.258-.489,16-1.908,1.651-3.538,3.768-5.689,4.964-4.786,2.667-10.943,2.049-15.561-3.581a50.06,50.06,0,0,1-10.576-21.139c-.755-3.428-1.878-6.777-2.835-10.16Z" transform="translate(43.539 43.817)" fill="url(#linear-gradient)"/>
      <path id="Path_43" data-name="Path 43" d="M153.875,265.935c-2.548-3.477-4.8-5.817-6.2-8.591-4.2-8.38-8.478-16.726-8.3-26.583.125-6.964,3.912-11.316,10.808-11.346,4.254-.021,8.527-.578,12.3,2.419a10.943,10.943,0,0,1,4.245,7.949c.673,7.383-1.395,14.209-4.716,20.7C159.493,255.411,156.857,260.286,153.875,265.935Z" transform="translate(29.41 0)" fill="url(#linear-gradient)"/>
      <path id="Path_44" data-name="Path 44" d="M146.261,260.574c1.948-6.41,3.844-12.264,5.493-18.185,1.453-5.221,4.487-9.5,7.569-13.79,5.5-7.652,14.7-6.793,20.463-.049,3.921,4.594,5.273,9.3,2.82,14.555a17.823,17.823,0,0,1-6.15,7.01c-8.45,5.508-17.576,9.542-27.81,10.457C148.237,260.607,147.821,260.574,146.261,260.574Z" transform="translate(43.593 7.845)" fill="url(#linear-gradient)"/>
      <path id="Path_45" data-name="Path 45" d="M152.107,241.713a81.28,81.28,0,0,1,5.077,6.8c4.367,7.429,8.08,15.179,9.371,23.791.587,3.909.639,7.921-1.921,11.441-1.477,2.028-3.223,3.655-5.78,3.771-3.762.171-7.539.214-11.3.037-3.6-.168-7.493-4.251-7.823-7.793-.557-5.979-.7-11.863,2.15-17.466,1.395-2.737,2.174-5.786,3.551-8.533C147.345,249.943,149.556,246.276,152.107,241.713Z" transform="translate(29.49 46.009)" fill="url(#linear-gradient)"/>
      <path id="Path_46" data-name="Path 46" d="M165.8,240.83a53.937,53.937,0,0,1-6.814,24.057,82.631,82.631,0,0,1-5.7,8.722,11.727,11.727,0,0,1-18.371.658c-1.963-2.217-4.117-4.508-5.257-7.163-1.835-4.263-.193-8.377,2.814-11.518,2.655-2.777,5.637-5.633,9.047-7.218C149.091,244.855,156.736,241.163,165.8,240.83Z" transform="translate(7.819 44.192)" fill="url(#linear-gradient)"/>
    </g>
  </g>
</svg>
