<?xml version="1.0" encoding="utf-8"?>
<!-- Generator: Adobe Illustrator 26.0.2, SVG Export Plug-In . SVG Version: 6.00 Build 0)  -->
<svg version="1.1" id="Instagram_black" xmlns="http://www.w3.org/2000/svg" xmlns:xlink="http://www.w3.org/1999/xlink" x="0px"
	 y="0px" viewBox="0 0 48 48" style="enable-background:new 0 0 48 48;" xml:space="preserve">
<style type="text/css">
	.st0{fill:#FF6700;}
</style>
<path id="Combined-Shape" class="st0" d="M24,48C10.7,48,0,37.2,0,24C0,14.3,5.8,5.6,14.7,1.9C26.9-3.3,41,2.4,46.1,14.7
	S45.6,41,33.3,46.1l0,0C30.4,47.4,27.2,48,24,48z M24,11.2h-0.6c-2.9,0-3.4,0-4.7,0.1c-1.1,0-2.1,0.2-3.1,0.6
	c-1.7,0.7-3.1,2-3.7,3.7c-0.4,1-0.6,2-0.6,3.1c-0.1,1.4-0.1,1.9-0.1,5.3s0,3.9,0.1,5.3c0,1.1,0.2,2.1,0.6,3.1c0.7,1.7,2,3.1,3.7,3.7
	c1,0.4,2,0.6,3.1,0.6c1.4,0.1,1.8,0.1,5.3,0.1s3.9,0,5.3-0.1c1.1,0,2.1-0.2,3.1-0.6c1.7-0.7,3.1-2,3.7-3.7c0.4-1,0.6-2,0.6-3.1
	c0.1-1.4,0.1-1.9,0.1-5.3s0-3.9-0.1-5.3c0-1.1-0.2-2.1-0.6-3.1c-0.7-1.7-2-3.1-3.7-3.7c-1-0.4-2-0.6-3.1-0.6
	C27.9,11.2,27.4,11.2,24,11.2z"/>
<path id="Combined-Shape-2" class="st0" d="M24,34.5c-3.4,0-3.8,0-5.2-0.1c-0.8,0-1.6-0.2-2.4-0.4c-0.6-0.2-1.1-0.5-1.5-1
	c-0.4-0.4-0.8-0.9-1-1.5c-0.3-0.8-0.4-1.6-0.4-2.4c-0.1-1.3-0.1-1.7-0.1-5.2s0-3.8,0.1-5.2c0-0.8,0.2-1.6,0.4-2.4
	c0.2-0.6,0.5-1.1,1-1.5c0.4-0.4,0.9-0.8,1.5-1c0.8-0.3,1.6-0.4,2.4-0.4c1.2-0.1,1.6-0.1,4-0.1c0.1,0,0.2,0,0.3,0H24
	c3.4,0,3.8,0,5.2,0.1c0.8,0,1.6,0.2,2.4,0.4c0.6,0.2,1.1,0.5,1.5,1c0.4,0.4,0.8,0.9,1,1.5c0.3,0.8,0.4,1.6,0.4,2.4
	c0.1,1.3,0.1,1.7,0.1,5.2s0,3.8-0.1,5.2c0,0.8-0.2,1.6-0.4,2.4c-0.4,1.1-1.3,2-2.4,2.4c-0.8,0.3-1.6,0.4-2.4,0.4
	C27.8,34.5,27.4,34.5,24,34.5z M24,17.4c-3.6,0-6.6,2.9-6.6,6.6s2.9,6.6,6.6,6.6c3.6,0,6.6-2.9,6.6-6.6C30.6,20.4,27.6,17.4,24,17.4
	z M30.8,15.6L30.8,15.6c-0.8,0-1.5,0.7-1.5,1.5c0,0.8,0.7,1.5,1.5,1.5c0.8,0,1.5-0.7,1.5-1.5C32.4,16.3,31.7,15.6,30.8,15.6
	L30.8,15.6z"/>
<path id="Shape" class="st0" d="M24,19.7c2.4,0,4.3,1.9,4.3,4.3s-1.9,4.3-4.3,4.3s-4.3-1.9-4.3-4.3S21.6,19.7,24,19.7
	C24,19.7,24,19.7,24,19.7z"/>
</svg>
