<svg width="749" height="848" viewBox="0 0 749 848" fill="none" xmlns="http://www.w3.org/2000/svg">
<path d="M109.541 396.359C109.541 346.451 150.659 291.702 227.384 291.702C264.584 291.702 296.911 308.519 326.276 330.59C350.29 298.422 374.272 262.91 398.733 229.309C354.685 208.193 323.345 171.217 323.345 141.437C323.345 122.71 339.493 109.747 346.341 109.747C352.233 109.747 354.176 120.799 358.603 129.43C373.285 158.732 398.733 179.37 427.62 192.333C470.712 140.004 516.798 100.639 570.941 100.639C579.579 100.512 588.181 101.77 596.421 104.365C552.297 51.0472 490.446 15.4051 422.19 3.96319C353.935 -7.47868 283.842 6.04521 224.743 42.0592C165.644 78.0732 121.493 134.168 100.372 200.074C79.2516 265.98 82.5746 337.289 109.733 400.945C109.669 399.353 109.541 397.76 109.541 396.359Z" fill="#FF6700"/>
<path d="M482.082 206.665C489.059 207.627 496.092 208.116 503.135 208.13C564.349 208.13 594.701 174.975 594.701 150.514C594.701 135.609 584.891 124.111 568.266 124.111C539.857 124.175 512.435 158.891 482.082 206.665Z" fill="#FF6700"/>
<path d="M627.633 150.26C624.13 192.874 571.133 246.572 472.782 246.572C467.4 246.572 462.495 246.572 457.622 246.094C433.13 286.893 406.217 332.087 375.355 371.899C412.078 405.022 445.424 435.597 481.127 435.597C499.217 435.597 511.479 421.647 513.422 421.647C515.874 421.647 517.339 422.635 517.339 425.023C517.339 427.89 470.33 494.646 427.269 494.646C394.465 494.646 363.125 460.058 329.843 422.635C293.598 456.236 252.003 478.785 204.006 478.785C181.075 478.785 162.602 473.625 148.047 465.122C192.601 521.897 256.852 559.869 328.075 571.518C399.298 583.168 472.299 567.644 532.619 528.022C592.94 488.4 636.18 427.569 653.777 357.578C671.373 287.587 662.043 213.539 627.633 150.101V150.26Z" fill="#FF6700"/>
<path d="M140.372 385.817C140.372 412.22 159.481 432.381 193.751 432.381C227.033 432.381 257.864 410.277 288.216 377.664C261.303 351.738 232.893 332.056 201.076 332.056C165.023 332.056 140.372 357.471 140.372 385.817Z" fill="#FF6700"/>
<path d="M290.433 674.545C290.433 662.169 281.389 652.173 262.825 652.173C236.407 652.173 214.035 671.689 193.091 697.631C179.049 691.205 166.673 680.971 159.533 666.453C157.391 662.169 156.439 656.695 153.583 656.695C150.251 656.695 142.397 663.121 142.397 672.403C142.397 687.159 157.629 705.485 179.049 715.957C167.149 732.617 155.487 750.229 143.825 766.175C129.545 755.227 113.837 746.897 95.749 746.897C58.383 746.897 38.391 774.029 38.391 798.781C38.391 819.963 53.147 839.717 84.325 839.717C107.649 839.717 127.879 828.531 145.491 811.871C161.675 830.435 176.907 847.571 192.853 847.571C213.797 847.571 236.645 814.489 236.645 813.061C236.645 811.871 235.931 811.395 234.741 811.395C233.789 811.395 227.839 818.297 219.033 818.297C201.659 818.297 185.475 803.065 167.625 786.643C182.619 766.889 195.709 744.517 207.609 724.287C209.989 724.525 212.369 724.525 214.987 724.525C264.491 724.525 290.433 695.965 290.433 674.545ZM274.249 676.925C274.249 689.063 259.493 705.485 229.743 705.485C226.411 705.485 222.841 705.247 219.509 704.771C234.265 680.971 247.593 663.835 261.397 663.835C269.489 663.835 274.249 669.547 274.249 676.925ZM125.261 789.499C110.505 805.683 95.511 816.631 79.327 816.631C62.667 816.631 53.385 806.635 53.385 793.545C53.385 779.503 65.285 766.889 82.897 766.889C98.367 766.889 112.171 776.647 125.261 789.499ZM349.485 780.931C349.485 777.361 349.247 773.077 346.629 773.077C343.773 773.077 317.593 820.201 285.939 820.201C277.133 820.201 273.325 813.537 273.325 803.065C273.325 797.353 275.229 790.689 278.323 783.549C279.037 783.787 279.751 783.787 280.465 783.787C318.783 783.787 345.201 752.847 345.201 734.997C345.201 725.715 338.061 716.909 330.445 716.909C325.447 716.909 320.925 719.527 312.357 719.527C280.465 719.527 244.765 773.791 244.765 804.017C244.765 823.533 257.379 839.955 273.563 839.955C313.071 839.955 349.485 789.499 349.485 780.931ZM327.589 734.759C327.589 748.325 303.075 767.603 284.273 771.649C296.173 750.705 314.975 730.713 323.305 730.713C326.161 730.713 327.589 732.141 327.589 734.759ZM434.866 681.209C434.866 669.785 425.108 661.693 413.922 661.693C402.022 661.693 390.836 671.213 390.836 683.589C390.836 695.013 400.594 703.105 411.78 703.105C423.68 703.105 434.866 693.585 434.866 681.209ZM412.732 781.407C412.732 778.075 412.494 772.601 409.876 772.601C407.734 772.601 380.364 817.583 365.608 817.583C363.704 817.583 362.276 816.155 362.276 812.585C362.276 796.163 397.976 733.807 402.974 724.287C403.45 723.573 403.688 722.859 403.688 722.383C403.688 718.337 395.358 717.147 389.408 717.147C386.552 717.147 384.172 717.385 383.22 717.623C371.082 722.621 333.954 782.597 333.954 811.633C333.954 825.199 341.57 839.003 353.47 839.003C378.222 839.003 412.732 785.691 412.732 781.407ZM517.368 709.531C517.368 706.199 512.846 704.057 506.896 704.057C497.852 704.057 479.05 715.243 465.96 734.997C458.582 746.183 450.014 756.893 443.112 764.747C439.78 764.271 436.448 764.033 433.116 764.033C408.126 764.033 391.704 785.691 391.704 805.683C391.704 827.579 409.316 840.193 430.022 840.193C450.728 840.193 474.29 827.579 485.952 798.781C486.428 798.781 487.142 798.781 487.856 798.781C496.9 798.781 506.182 790.689 505.944 776.885V776.409C505.944 775.457 505.706 775.219 504.516 775.219C504.04 775.219 503.088 778.313 498.09 778.313C496.662 778.313 494.758 778.075 492.616 777.361C494.52 769.507 495.948 762.367 497.138 756.417C501.66 735.949 517.368 715.005 517.368 709.531ZM469.292 749.515C467.864 753.799 465.96 760.701 463.58 769.507C460.486 768.555 457.392 767.841 454.298 766.889C460.486 759.511 466.674 751.657 468.578 749.039L469.292 749.515ZM456.678 793.545C449.3 815.203 435.734 823.295 424.786 823.295C414.076 823.295 408.84 816.393 408.84 809.015C408.84 799.733 416.932 789.499 432.64 789.499C440.256 789.499 448.11 791.403 456.678 793.545ZM639.724 780.693C639.724 776.647 639.01 772.601 636.63 772.601C634.726 772.601 608.546 815.203 596.408 815.203C591.41 815.203 590.696 813.061 590.696 810.205C590.696 799.971 617.59 751.419 620.922 744.993C624.016 738.567 627.824 732.617 627.824 726.191C627.824 721.907 619.018 717.861 607.356 717.861C602.12 717.861 586.65 753.323 574.75 773.077C561.184 796.163 541.668 817.583 536.194 817.583C534.29 817.583 532.862 816.155 532.862 812.585C532.862 796.163 568.562 733.807 573.56 724.287C574.036 723.573 574.274 722.859 574.274 722.383C574.274 718.337 565.944 717.147 559.994 717.147C557.138 717.147 554.758 717.385 553.806 717.623C541.668 722.621 504.54 782.597 504.54 811.633C504.54 825.199 515.488 839.003 526.198 839.003C537.146 839.003 555.472 818.535 559.28 813.061C559.042 814.489 559.042 815.203 559.042 817.583C559.042 829.959 569.514 838.765 580.938 838.765C604.262 838.765 639.724 787.595 639.724 780.693ZM730.164 782.359C730.164 778.075 729.212 773.791 727.07 773.791C725.88 773.791 718.264 785.691 709.22 796.639C701.128 806.635 690.418 815.917 684.468 815.917C682.088 815.917 681.136 814.013 681.136 812.347C681.136 793.783 705.65 759.273 714.694 749.515C719.93 743.565 727.308 739.757 727.308 735.473C727.308 729.999 718.502 716.909 711.838 716.909C708.506 716.909 695.178 718.813 683.992 718.813C680.184 718.813 678.756 718.099 678.756 717.147C678.756 716.433 681.136 714.529 681.136 709.769C681.136 705.723 679.232 703.581 675.662 703.581C667.808 703.581 664.238 705.961 659.478 717.861C654.956 728.571 653.528 738.805 646.388 753.085C639.962 766.651 633.774 775.933 630.68 780.455C629.966 781.645 628.538 784.025 628.538 785.691C628.538 789.975 629.966 792.831 632.108 792.831C633.06 792.831 634.012 792.117 634.726 790.927C643.056 779.027 654.718 761.653 666.38 742.613C666.618 742.137 667.332 741.899 668.284 741.899C672.33 741.899 680.184 745.231 680.184 745.707C680.184 746.421 648.054 789.261 648.054 812.585C648.054 829.721 659.716 838.527 674.71 838.527C695.416 838.527 730.164 786.881 730.164 782.359Z" fill="black"/>
</svg>
