<?xml version="1.0" encoding="utf-8"?>
<!-- Generator: Adobe Illustrator 26.0.2, SVG Export Plug-In . SVG Version: 6.00 Build 0)  -->
<svg version="1.1" id="Twitter_black" xmlns="http://www.w3.org/2000/svg" xmlns:xlink="http://www.w3.org/1999/xlink" x="0px"
	 y="0px" viewBox="0 0 48 48" style="enable-background:new 0 0 48 48;" xml:space="preserve">
<style type="text/css">
	.st0{fill:#FF6700;}
</style>
<path id="Combined-Shape" class="st0" d="M24,48C10.7,48,0,37.2,0,24C0,14.3,5.8,5.6,14.7,1.9C26.9-3.3,41,2.4,46.1,14.7
	S45.6,41,33.3,46.1l0,0C30.4,47.4,27.2,48,24,48z M12.8,21.2C12.7,21.2,12.7,21.2,12.8,21.2c0,0.8,0.2,1.6,0.6,2.3
	c0.5,0.9,1.3,1.7,2.3,2.2l0.8,0.4l-1,0c-0.6,0-0.8,0-0.9,0.1c0,0.1,0,0.1,0,0.3c0.6,1.3,1.7,2.3,3.1,2.8l1,0.4l-0.9,0.5
	c-1.4,0.8-2.9,1.2-4.5,1.3c-0.5,0-0.9,0-1.4,0.1c1,0.6,2.1,1.1,3.2,1.5c1.3,0.4,2.6,0.6,4,0.6c2.5,0,4.9-0.6,7-1.8
	c2.5-1.6,4.4-3.9,5.6-6.6c0.6-1.6,1-3.3,1.1-5.1c0-0.8,0.1-0.9,1-1.8c0.4-0.4,0.8-0.8,1.2-1.3c0.1-0.1,0.1-0.2,0.1-0.2
	c0,0,0,0-0.1,0c-0.2,0-0.5,0.1-0.7,0.2c-0.4,0.2-0.8,0.3-1.2,0.3c-0.1,0-0.1,0-0.1-0.1c0-0.1,0.1-0.3,0.4-0.6
	c0.5-0.5,0.9-1.1,1.1-1.8c0,0,0,0,0,0c-0.2,0-0.4,0.1-0.5,0.2c-0.5,0.2-1,0.4-1.5,0.6l-0.9,0.3l-0.8-0.6c-0.4-0.3-0.9-0.6-1.4-0.7
	c-0.4-0.1-0.9-0.2-1.3-0.2c-0.5,0-1.1,0.1-1.6,0.2c-2.1,0.7-3.4,2.7-3.3,4.9l0,0.8l-0.8-0.1c-3-0.4-5.8-1.8-8-3.9l-1.1-1.1L13.1,16
	c-0.6,1.7-0.2,3.7,1,5c0.3,0.3,0.4,0.5,0.4,0.6c0,0-0.1,0-0.1,0c-0.3,0-0.6-0.1-0.9-0.3C13.3,21.3,13,21.3,12.8,21.2z"/>
</svg>
